<svg
      xmlns="http://www.w3.org/2000/svg"
      width="16"
      height="16"
      fill="none"
      viewBox="0 0 16 16"
    >
      <path
        fill="#8B8B8B"
        d="M15.212 14.573l-3.808-3.96A6.44 6.44 0 0012.92 6.46 6.467 6.467 0 006.46 0 6.467 6.467 0 000 6.46a6.467 6.467 0 006.46 6.46 6.39 6.39 0 003.701-1.169l3.837 3.99a.838.838 0 001.191.023.844.844 0 00.023-1.19zM6.46 1.685a4.78 4.78 0 014.775 4.775 4.78 4.78 0 01-4.775 4.775A4.78 4.78 0 011.685 6.46 4.78 4.78 0 016.46 1.685z"
      ></path>
    </svg>
